<svg width="796" height="156" viewBox="0 0 796 156" fill="none" xmlns="http://www.w3.org/2000/svg">
<path d="M57.9424 144.658C60.8839 149.753 65.1986 153.559 70.1484 155.884H0L32.2109 100.091L57.9424 144.658ZM180 155.884H93.7646C94.459 155.556 95.1464 155.199 95.8232 154.809C109.087 147.151 113.631 130.19 105.974 116.927L64.2324 44.6299L90 0L180 155.884Z" fill="white"/>
<path d="M238.229 52.4189H251.683L281.952 115H268.619L263.614 104.47H227.059L222.214 115H208.841L238.229 52.4189ZM258.609 94.0195L245.076 65.5918L231.903 94.0195H258.609ZM290.521 67.7539H302.372V71.7578C305.335 69.9427 308.218 68.6882 311.021 67.9941C313.85 67.2734 316.613 66.9131 319.309 66.9131C323.072 66.9131 326.529 67.5137 329.679 68.7148C332.828 69.916 335.524 71.7311 337.767 74.1602C339.502 72.8255 341.21 71.7044 342.892 70.7969C344.573 69.8626 346.255 69.1152 347.937 68.5547C349.618 67.9674 351.326 67.5537 353.062 67.3135C354.797 67.0465 356.585 66.9131 358.427 66.9131C362.297 66.9131 365.807 67.4469 368.957 68.5146C372.107 69.5557 374.789 71.1172 377.005 73.1992C379.247 75.2812 380.969 77.8838 382.17 81.0068C383.398 84.1032 384.012 87.6934 384.012 91.7773V115H372.2V93.6992C372.2 91.11 371.826 88.8011 371.079 86.7725C370.358 84.7171 369.331 82.9954 367.996 81.6074C366.688 80.1927 365.113 79.125 363.271 78.4043C361.456 77.6569 359.454 77.2832 357.266 77.2832C356.064 77.2832 354.837 77.4033 353.582 77.6436C352.327 77.8571 351.1 78.2041 349.898 78.6846C348.724 79.165 347.616 79.779 346.575 80.5264C345.534 81.2471 344.627 82.1012 343.853 83.0889V115H332.041V93.6992C332.041 91.11 331.667 88.8011 330.92 86.7725C330.199 84.7171 329.172 82.9954 327.837 81.6074C326.529 80.1927 324.941 79.125 323.072 78.4043C321.23 77.6569 319.202 77.2832 316.986 77.2832C315.625 77.2832 314.25 77.43 312.862 77.7236C311.501 77.9906 310.18 78.3776 308.898 78.8848C307.644 79.3919 306.456 80.0059 305.335 80.7266C304.241 81.4473 303.253 82.2614 302.372 83.1689V115H290.521V67.7539ZM405.192 61.3076C404.018 61.3076 402.95 61.1475 401.989 60.8271C401.055 60.4801 400.254 60.0264 399.587 59.4658C398.92 58.8786 398.399 58.2113 398.025 57.4639C397.678 56.6898 397.505 55.8757 397.505 55.0215C397.505 54.1406 397.678 53.3265 398.025 52.5791C398.399 51.805 398.92 51.1377 399.587 50.5771C400.254 50.0166 401.055 49.5762 401.989 49.2559C402.95 48.9089 404.018 48.7354 405.192 48.7354C406.394 48.7354 407.461 48.9089 408.396 49.2559C409.356 49.5762 410.171 50.0166 410.838 50.5771C411.505 51.1377 412.012 51.805 412.359 52.5791C412.733 53.3265 412.92 54.1406 412.92 55.0215C412.92 55.8757 412.733 56.6898 412.359 57.4639C412.012 58.2113 411.505 58.8786 410.838 59.4658C410.171 60.0264 409.356 60.4801 408.396 60.8271C407.461 61.1475 406.394 61.3076 405.192 61.3076ZM399.267 67.7539H411.118V115H399.267V67.7539ZM426.333 67.7539H438.185V74.5605C440.8 72.612 443.563 70.9303 446.473 69.5156C449.382 68.1009 452.278 67.0199 455.161 66.2725L458.645 77.123C454.08 77.5768 450.063 78.6045 446.593 80.2061C443.149 81.7809 440.347 84.0098 438.185 86.8926V115H426.333V67.7539ZM492.397 83.3291C492.397 78.8714 493.238 74.7207 494.92 70.877C496.602 67.0065 499.031 63.6566 502.207 60.8271C505.41 57.971 509.307 55.7288 513.898 54.1006C518.516 52.4723 523.735 51.6582 529.554 51.6582C534.652 51.6582 539.323 52.1787 543.567 53.2197C547.838 54.234 551.802 55.7956 555.459 57.9043L549.613 67.5137C548.519 66.793 547.251 66.1523 545.81 65.5918C544.395 65.0312 542.873 64.5641 541.245 64.1904C539.644 63.79 537.975 63.4831 536.24 63.2695C534.532 63.056 532.837 62.9492 531.155 62.9492C527.098 62.9492 523.481 63.4564 520.305 64.4707C517.128 65.4583 514.446 66.8597 512.257 68.6748C510.095 70.4632 508.44 72.612 507.292 75.1211C506.171 77.6035 505.61 80.3395 505.61 83.3291C505.61 86.4255 506.198 89.2682 507.372 91.8574C508.547 94.4466 510.242 96.6888 512.457 98.584C514.699 100.452 517.422 101.921 520.625 102.988C523.855 104.029 527.498 104.55 531.556 104.55C533.397 104.55 535.226 104.416 537.041 104.149C538.856 103.882 540.604 103.522 542.286 103.068C543.994 102.588 545.636 102.027 547.211 101.387C548.786 100.719 550.254 99.9987 551.615 99.2246L557.461 108.834C554.044 111.023 550.094 112.744 545.609 113.999C541.125 115.227 536.36 115.841 531.315 115.841C524.882 115.841 519.237 115.013 514.379 113.358C509.521 111.677 505.464 109.381 502.207 106.472C498.951 103.535 496.495 100.092 494.84 96.1416C493.212 92.1644 492.397 87.8936 492.397 83.3291ZM569.993 48.6152H581.845V71.3574C584.327 69.9961 587.09 68.915 590.133 68.1143C593.202 67.3135 596.419 66.9131 599.782 66.9131C603.679 66.9131 607.176 67.487 610.272 68.6348C613.396 69.7826 616.038 71.4375 618.2 73.5996C620.362 75.735 622.017 78.3376 623.165 81.4072C624.34 84.4769 624.927 87.9336 624.927 91.7773V115H613.115V92.2578C613.115 90.0156 612.755 87.9736 612.034 86.1318C611.313 84.2633 610.259 82.6618 608.871 81.3271C607.483 79.9925 605.788 78.9648 603.786 78.2441C601.811 77.4967 599.569 77.123 597.06 77.123C594.043 77.123 591.241 77.6035 588.651 78.5645C586.062 79.5254 583.793 80.7399 581.845 82.208V115H569.993V48.6152ZM635.978 91.2168C635.978 88.0137 636.632 84.9574 637.939 82.0479C639.247 79.1117 641.129 76.5225 643.585 74.2803C646.041 72.0381 649.044 70.2497 652.594 68.915C656.171 67.5804 660.228 66.9131 664.766 66.9131C669.277 66.9131 673.334 67.5938 676.938 68.9551C680.568 70.2897 683.637 72.1315 686.146 74.4805C688.682 76.8294 690.618 79.5921 691.952 82.7686C693.313 85.945 693.994 89.3483 693.994 92.9785C693.994 93.4323 693.981 93.9261 693.954 94.46C693.954 94.9671 693.927 95.4342 693.874 95.8613H649.19C649.698 97.276 650.512 98.5706 651.633 99.7451C652.781 100.92 654.209 101.934 655.917 102.788C657.625 103.642 659.601 104.31 661.843 104.79C664.085 105.244 666.567 105.471 669.29 105.471C672.013 105.471 674.722 105.19 677.418 104.63C680.114 104.043 682.69 103.309 685.146 102.428L689.149 111.477C687.601 112.197 686.026 112.838 684.425 113.398C682.85 113.932 681.195 114.386 679.46 114.76C677.752 115.107 675.95 115.374 674.055 115.561C672.186 115.747 670.211 115.841 668.129 115.841C662.817 115.841 658.159 115.2 654.155 113.919C650.151 112.638 646.801 110.889 644.105 108.674C641.41 106.458 639.381 103.856 638.02 100.866C636.658 97.8766 635.978 94.6602 635.978 91.2168ZM681.422 86.6123C680.995 85.3044 680.327 84.0898 679.42 82.9688C678.539 81.821 677.431 80.8333 676.097 80.0059C674.762 79.1517 673.214 78.4844 671.452 78.0039C669.69 77.5234 667.755 77.2832 665.646 77.2832C663.404 77.2832 661.362 77.5368 659.521 78.0439C657.679 78.5511 656.064 79.2318 654.676 80.0859C653.288 80.9401 652.127 81.9277 651.192 83.0488C650.285 84.1699 649.618 85.3577 649.19 86.6123H681.422ZM706.446 48.5752H718.298V72.1982C719.339 71.4775 720.567 70.7969 721.981 70.1562C723.396 69.5156 724.918 68.9551 726.546 68.4746C728.174 67.9941 729.856 67.6204 731.591 67.3535C733.326 67.0599 735.061 66.9131 736.796 66.9131C740.8 66.9131 744.47 67.5003 747.807 68.6748C751.17 69.8493 754.053 71.5042 756.455 73.6396C758.857 75.7751 760.726 78.3376 762.061 81.3271C763.422 84.29 764.103 87.5732 764.103 91.1768C764.103 94.9404 763.395 98.3438 761.98 101.387C760.566 104.403 758.604 106.992 756.095 109.154C753.612 111.29 750.649 112.945 747.206 114.119C743.789 115.267 740.079 115.841 736.075 115.841C734.367 115.841 732.672 115.734 730.99 115.521C729.335 115.307 727.734 115.013 726.186 114.64C724.664 114.266 723.223 113.826 721.861 113.318C720.527 112.785 719.339 112.211 718.298 111.597V115H706.446V48.5752ZM718.298 100.146C719.499 101.106 720.767 101.921 722.102 102.588C723.436 103.255 724.798 103.802 726.186 104.229C727.574 104.657 728.975 104.977 730.39 105.19C731.804 105.377 733.179 105.471 734.514 105.471C737.236 105.471 739.652 105.11 741.761 104.39C743.896 103.642 745.685 102.628 747.126 101.347C748.594 100.065 749.715 98.5573 750.489 96.8223C751.263 95.0872 751.65 93.2054 751.65 91.1768C751.65 89.2816 751.263 87.4932 750.489 85.8115C749.742 84.1299 748.647 82.6618 747.206 81.4072C745.791 80.126 744.07 79.125 742.041 78.4043C740.039 77.6569 737.784 77.2832 735.274 77.2832C733.673 77.2832 732.071 77.4434 730.47 77.7637C728.868 78.0573 727.32 78.4844 725.825 79.0449C724.357 79.6055 722.969 80.2861 721.661 81.0869C720.38 81.8877 719.259 82.7819 718.298 83.7695V100.146ZM781.319 61.3076C780.145 61.3076 779.077 61.1475 778.116 60.8271C777.182 60.4801 776.381 60.0264 775.714 59.4658C775.047 58.8786 774.526 58.2113 774.152 57.4639C773.805 56.6898 773.632 55.8757 773.632 55.0215C773.632 54.1406 773.805 53.3265 774.152 52.5791C774.526 51.805 775.047 51.1377 775.714 50.5771C776.381 50.0166 777.182 49.5762 778.116 49.2559C779.077 48.9089 780.145 48.7354 781.319 48.7354C782.521 48.7354 783.588 48.9089 784.522 49.2559C785.483 49.5762 786.298 50.0166 786.965 50.5771C787.632 51.1377 788.139 51.805 788.486 52.5791C788.86 53.3265 789.047 54.1406 789.047 55.0215C789.047 55.8757 788.86 56.6898 788.486 57.4639C788.139 58.2113 787.632 58.8786 786.965 59.4658C786.298 60.0264 785.483 60.4801 784.522 60.8271C783.588 61.1475 782.521 61.3076 781.319 61.3076ZM775.394 67.7539H787.245V115H775.394V67.7539Z" fill="white"/>
</svg>
